<?xml version="1.0" encoding="UTF-8" standalone="no"?>
<svg
   xmlns:dc="http://purl.org/dc/elements/1.1/"
   xmlns:cc="http://creativecommons.org/ns#"
   xmlns:rdf="http://www.w3.org/1999/02/22-rdf-syntax-ns#"
   xmlns:svg="http://www.w3.org/2000/svg"
   xmlns="http://www.w3.org/2000/svg"
   xmlns:sodipodi="http://sodipodi.sourceforge.net/DTD/sodipodi-0.dtd"
   xmlns:inkscape="http://www.inkscape.org/namespaces/inkscape"
   width="200"
   height="200"
   viewBox="0 0 52.916665 52.916668"
   version="1.1"
   id="svg8"
   inkscape:version="1.0.1 (3bc2e813f5, 2020-09-07)"
   sodipodi:docname="backgroundImg.svg">
  <defs
     id="defs2">
    <filter
       inkscape:collect="always"
       style="color-interpolation-filters:sRGB"
       id="filter851"
       x="-4.32e-05"
       width="1.0000864"
       y="-4.32e-05"
       height="1.0000864">
      <feGaussianBlur
         inkscape:collect="always"
         stdDeviation="0.00095250002"
         id="feGaussianBlur853" />
    </filter>
  </defs>
  <sodipodi:namedview
     id="base"
     pagecolor="#ffffff"
     bordercolor="#666666"
     borderopacity="1.0"
     inkscape:pageopacity="0.0"
     inkscape:pageshadow="2"
     inkscape:zoom="3.959798"
     inkscape:cx="96.77859"
     inkscape:cy="103.75687"
     inkscape:document-units="px"
     inkscape:current-layer="layer1"
     inkscape:document-rotation="0"
     showgrid="false"
     units="px"
     inkscape:showpageshadow="false"
     inkscape:window-width="1366"
     inkscape:window-height="715"
     inkscape:window-x="-8"
     inkscape:window-y="22"
     inkscape:window-maximized="1" />
  <metadata
     id="metadata5">
    <rdf:RDF>
      <cc:Work
         rdf:about="">
        <dc:format>image/svg+xml</dc:format>
        <dc:type
           rdf:resource="http://purl.org/dc/dcmitype/StillImage" />
        <dc:title></dc:title>
      </cc:Work>
    </rdf:RDF>
  </metadata>
  <g
     inkscape:label="Layer 1"
     inkscape:groupmode="layer"
     id="layer1">
    <rect
       style="fill:#ebebeb;stroke:#e6e6e6;stroke-width:0.264583;filter:url(#filter851);fill-opacity:0.79919678"
       id="rect833"
       width="52.916668"
       height="52.916668"
       x="-1.4263969e-06"
       y="-1.4263969e-06" />
    <rect
       style="fill:#ffffff;fill-opacity:0;stroke:#f5f5f5;stroke-width:1;stroke-miterlimit:4;stroke-dasharray:none;filter:url(#filter851);stroke-opacity:1"
       id="rect859"
       width="52.916668"
       height="52.916668"
       x="13.229165"
       y="11.71726"
       transform="matrix(0.51334411,0.48656015,-0.48656684,0.51333706,24.659968,-12.44897)" />
    <g
       id="g1129"
       transform="matrix(0.06927234,0,0,0.06927234,3.2673555,24.96062)"
       style="opacity:0.39423077">
      <g
         id="g1101">
        <g
           id="g1099">
          <g
             id="g1097">
            <g
               id="g909">
              <g
                 id="g875">
                <g
                   id="g865">
                  <path
                     class="st5"
                     d="m 2.76942,37.70081 17.41666,10.12146 c 0.36913,0.21532 0.96382,0.21532 1.33295,0.0034 L 47.98306,32.5447 c 0.36913,-0.2119 0.36913,-0.5571 0,-0.77242 L 30.56639,21.65084 c -0.36571,-0.2119 -0.9604,-0.2119 -1.32953,0 L 2.77284,36.92841 c -0.36913,0.21532 -0.37255,0.5605 -0.00342,0.7724 z"
                     id="path863" />
                </g>
                <g
                   id="g869">
                  <path
                     class="st12"
                     d="m 23.35059,38.72942 c -0.20812,0.12016 -0.2069,0.31592 -1.2e-4,0.43608 l 4.29328,2.49498 c 0.20676,0.12016 0.54473,0.12151 0.75285,0.0014 l 8.46034,-4.88458 c 0.20812,-0.12016 0.20689,-0.31592 1.2e-4,-0.43608 l -4.29328,-2.49498 c -0.20677,-0.12016 -0.54473,-0.12151 -0.75284,-0.0014 z"
                     id="path867" />
                </g>
                <g
                   id="g873">
                  <path
                     class="st6"
                     d="m 2.496,37.31802 0.00342,1.0188 c 0,0.13672 0.09227,0.27684 0.27342,0.38279 L 20.1895,48.84107 c 0.36913,0.2119 0.96382,0.2119 1.33295,0 L 47.98648,33.5635 c 0.18456,-0.10595 0.27684,-0.24607 0.27684,-0.38963 l -0.0034,-1.01538 c 0,0.14014 -0.09227,0.28026 -0.27684,0.38621 L 21.51903,47.82569 c -0.36913,0.2119 -0.96382,0.2119 -1.33295,-0.0034 L 2.76942,37.70081 C 2.58487,37.59486 2.496,37.45816 2.496,37.31802 Z"
                     id="path871" />
                </g>
              </g>
              <g
                 id="g907">
                <g
                   id="g879">
                  <path
                     class="st9"
                     d="m 29.18533,1.49765 c 0.36878,-0.21291 0.6687,-0.042 0.66991,0.38176 l 0.04718,18.61863 c 0.0012,0.42126 -0.29678,0.93988 -0.66556,1.15279 L 3.1542,36.70825 C 2.78542,36.92116 2.48549,36.74775 2.48429,36.32649 L 2.43711,17.70786 C 2.43591,17.2841 2.73389,16.76798 3.10267,16.55507 Z"
                     id="path877" />
                </g>
                <g
                   id="g883">
                  <path
                     class="st11"
                     d="m 1.73668,17.30204 0.04785,18.61792 c 0,0.20848 0.0752,0.35886 0.19482,0.42723 L 2.67889,36.754 C 2.55925,36.68566 2.48407,36.53528 2.48407,36.32677 L 2.43622,17.70887 c 0,-0.42383 0.29735,-0.9399 0.66648,-1.15522 L 29.18548,1.49794 C 29.37005,1.39199 29.53752,1.38175 29.66056,1.45009 L 28.96102,1.04328 C 28.8414,0.97492 28.67052,0.98516 28.48596,1.09111 L 2.40316,16.15025 c -0.36913,0.2119 -0.66648,0.72799 -0.66648,1.15179 z"
                     id="path881" />
                </g>
                <g
                   id="g887">
                  <polygon
                     class="st11"
                     points="28.96102,20.72511 28.91563,2.73836 3.3785,17.48081 3.42389,35.46756 "
                     id="polygon885" />
                </g>
                <g
                   id="g891">
                  <polygon
                     class="st5"
                     points="28.92324,5.75526 28.91563,2.73836 3.3785,17.48081 3.38612,20.49771 "
                     id="polygon889" />
                </g>
                <g
                   id="g905">
                  <g
                     id="g895">
                    <path
                       class="st2"
                       d="m 24.70504,6.30753 c 0.2462,-0.14214 0.44634,-0.03296 0.44714,0.24993 8e-4,0.28288 -0.19805,0.62733 -0.44425,0.76948 -0.24195,0.13969 -0.44211,0.02561 -0.44291,-0.25727 -8.1e-4,-0.2829 0.19806,-0.62245 0.44002,-0.76214 z"
                       id="path893" />
                  </g>
                  <g
                     id="g899">
                    <path
                       class="st2"
                       d="m 26.12703,5.48654 c 0.24195,-0.13969 0.44209,-0.03051 0.4429,0.25238 8e-4,0.28288 -0.19805,0.62733 -0.44001,0.76702 -0.2462,0.14214 -0.44635,0.02806 -0.44715,-0.25482 -8e-4,-0.28289 0.19806,-0.62244 0.44426,-0.76458 z"
                       id="path897" />
                  </g>
                  <g
                     id="g903">
                    <path
                       class="st2"
                       d="m 27.54478,4.668 c 0.2462,-0.14214 0.44634,-0.03296 0.44714,0.24993 8e-4,0.28288 -0.19805,0.62733 -0.44425,0.76948 -0.2462,0.14214 -0.44635,0.02806 -0.44715,-0.25483 -8e-4,-0.28289 0.19807,-0.62244 0.44426,-0.76458 z"
                       id="path901" />
                  </g>
                </g>
              </g>
            </g>
            <g
               id="g1095">
              <g
                 id="g913">
                <polygon
                   class="st11"
                   points="5.71853,37.00709 7.39022,36.03561 8.11036,36.45138 6.43867,37.42286 "
                   id="polygon911" />
              </g>
              <g
                 id="g917">
                <polygon
                   class="st11"
                   points="23.70354,26.55535 25.37752,25.58253 26.09766,25.9983 24.42368,26.97111 "
                   id="polygon915" />
              </g>
              <g
                 id="g921">
                <polygon
                   class="st11"
                   points="28.20037,23.94208 29.87435,22.96926 30.59448,23.38503 28.9205,24.35785 "
                   id="polygon919" />
              </g>
              <g
                 id="g925">
                <polygon
                   class="st11"
                   points="24.43608,29.5817 26.10777,28.61022 27.59419,29.46841 25.9225,30.43989 "
                   id="polygon923" />
              </g>
              <g
                 id="g929">
                <polygon
                   class="st11"
                   points="32.6767,29.13257 34.35068,28.15976 35.83942,29.01929 34.16545,29.9921 "
                   id="polygon927" />
              </g>
              <g
                 id="g933">
                <polygon
                   class="st11"
                   points="33.05206,26.74321 34.72605,25.77039 38.08899,27.71199 36.415,28.6848 "
                   id="polygon931" />
              </g>
              <g
                 class="st8"
                 id="g955">
                <g
                   id="g937">
                  <polygon
                     class="st11"
                     points="27.89341,25.40129 30.97995,23.60758 32.4687,24.46711 29.38215,26.26081 "
                     id="polygon935" />
                </g>
                <g
                   id="g941">
                  <polygon
                     class="st11"
                     points="25.64614,26.70726 27.32012,25.73444 28.80887,26.59397 27.13488,27.56678 "
                     id="polygon939" />
                </g>
                <g
                   id="g945">
                  <polygon
                     class="st11"
                     points="28.93061,26.96976 32.85415,24.68965 34.34058,25.54784 30.41704,27.82795 "
                     id="polygon943" />
                </g>
                <g
                   id="g949">
                  <polygon
                     class="st11"
                     points="26.68334,28.27573 28.35732,27.30292 29.84375,28.16111 28.16977,29.13392 "
                     id="polygon947" />
                </g>
                <g
                   id="g953">
                  <polygon
                     class="st11"
                     points="28.55524,29.35647 30.22922,28.38366 31.71796,29.24319 30.04398,30.216 "
                     id="polygon951" />
                </g>
              </g>
              <g
                 id="g959">
                <polygon
                   class="st11"
                   points="23.39658,28.01456 25.07056,27.04175 26.55931,27.90127 24.88532,28.87409 "
                   id="polygon957" />
              </g>
              <g
                 id="g963">
                <polygon
                   class="st11"
                   points="21.45627,27.86131 23.12797,26.88983 23.8481,27.3056 22.17641,28.27708 "
                   id="polygon961" />
              </g>
              <g
                 id="g967">
                <polygon
                   class="st11"
                   points="19.20672,29.16862 20.8807,28.1958 21.60083,28.61157 19.92685,29.58438 "
                   id="polygon965" />
              </g>
              <g
                 id="g971">
                <polygon
                   class="st11"
                   points="19.56159,34.58301 21.23557,33.6102 22.72432,34.46972 21.05033,35.44254 "
                   id="polygon969" />
              </g>
              <g
                 class="st8"
                 id="g1057">
                <g
                   id="g975">
                  <polygon
                     class="st11"
                     points="16.95945,30.47458 18.63114,29.5031 19.35127,29.91887 17.67958,30.89035 "
                     id="polygon973" />
                </g>
                <g
                   id="g979">
                  <polygon
                     class="st11"
                     points="18.90204,30.6265 20.57374,29.65502 22.06248,30.51454 20.39079,31.48602 "
                     id="polygon977" />
                </g>
                <g
                   id="g983">
                  <polygon
                     class="st11"
                     points="14.70989,31.78189 16.38388,30.80907 17.10401,31.22484 15.43002,32.19765 "
                     id="polygon981" />
                </g>
                <g
                   id="g987">
                  <polygon
                     class="st11"
                     points="16.65249,31.9338 18.32647,30.96098 19.81521,31.82051 18.14123,32.79332 "
                     id="polygon985" />
                </g>
                <g
                   id="g991">
                  <polygon
                     class="st11"
                     points="19.93925,32.19497 21.61094,31.22349 23.09737,32.08168 21.42568,33.05316 "
                     id="polygon989" />
                </g>
                <g
                   id="g995">
                  <polygon
                     class="st11"
                     points="12.46263,33.08785 14.13661,32.11504 14.85674,32.53081 13.18276,33.50362 "
                     id="polygon993" />
                </g>
                <g
                   id="g999">
                  <polygon
                     class="st11"
                     points="14.40522,33.23977 16.0792,32.26695 17.56795,33.12648 15.89396,34.09929 "
                     id="polygon997" />
                </g>
                <g
                   id="g1003">
                  <polygon
                     class="st11"
                     points="21.81115,33.27571 23.48284,32.30423 24.97158,33.16376 23.29989,34.13523 "
                     id="polygon1001" />
                </g>
                <g
                   id="g1007">
                  <polygon
                     class="st11"
                     points="17.68969,33.50227 19.36368,32.52946 20.8501,33.38765 19.17612,34.36046 "
                     id="polygon1005" />
                </g>
                <g
                   id="g1011">
                  <polygon
                     class="st11"
                     points="10.21307,34.39515 11.88705,33.42234 12.60718,33.83811 10.9332,34.81092 "
                     id="polygon1009" />
                </g>
                <g
                   id="g1015">
                  <polygon
                     class="st11"
                     points="12.15566,34.54707 13.82965,33.57425 15.31839,34.43378 13.6444,35.40659 "
                     id="polygon1013" />
                </g>
                <g
                   id="g1019">
                  <polygon
                     class="st11"
                     points="15.44243,34.80824 17.11641,33.83543 18.60283,34.69361 16.92885,35.66643 "
                     id="polygon1017" />
                </g>
                <g
                   id="g1023">
                  <polygon
                     class="st11"
                     points="9.9084,35.85303 11.58238,34.88022 13.07112,35.73975 11.39714,36.71256 "
                     id="polygon1021" />
                </g>
                <g
                   id="g1027">
                  <polygon
                     class="st11"
                     points="17.31432,35.88898 18.98831,34.91617 20.47705,35.77569 18.80307,36.7485 "
                     id="polygon1025" />
                </g>
                <g
                   id="g1031">
                  <polygon
                     class="st11"
                     points="13.19287,36.11554 14.86685,35.14273 16.35328,36.00092 14.67929,36.97373 "
                     id="polygon1029" />
                </g>
                <g
                   id="g1035">
                  <polygon
                     class="st11"
                     points="15.06476,37.19628 16.73875,36.22347 18.22749,37.08299 16.5535,38.05581 "
                     id="polygon1033" />
                </g>
                <g
                   id="g1039">
                  <polygon
                     class="st11"
                     points="16.93896,38.27835 25.45335,33.33033 26.94209,34.18985 18.4277,39.13788 "
                     id="polygon1037" />
                </g>
                <g
                   id="g1043">
                  <polygon
                     class="st11"
                     points="12.8175,38.50225 14.49148,37.52943 15.98023,38.38896 14.30624,39.36177 "
                     id="polygon1041" />
                </g>
                <g
                   id="g1047">
                  <polygon
                     class="st11"
                     points="8.69833,38.72748 12.61959,36.4487 14.10601,37.30688 10.18476,39.58567 "
                     id="polygon1045" />
                </g>
                <g
                   id="g1051">
                  <polygon
                     class="st11"
                     points="10.57023,39.80822 12.24192,38.83674 13.73066,39.69626 12.05897,40.66774 "
                     id="polygon1049" />
                </g>
                <g
                   id="g1055">
                  <polygon
                     class="st11"
                     points="12.44443,40.89029 16.36568,38.6115 17.85442,39.47103 13.93317,41.74981 "
                     id="polygon1053" />
                </g>
              </g>
              <g
                 id="g1061">
                <polygon
                   class="st11"
                   points="7.9658,35.70112 9.63979,34.72831 10.35992,35.14408 8.68593,36.11689 "
                   id="polygon1059" />
              </g>
              <g
                 id="g1065">
                <polygon
                   class="st11"
                   points="25.95081,25.24938 27.62479,24.27657 28.34492,24.69234 26.67094,25.66514 "
                   id="polygon1063" />
              </g>
              <g
                 id="g1069">
                <polygon
                   class="st11"
                   points="21.14931,29.32053 22.8233,28.34772 24.31204,29.20724 22.63805,30.18005 "
                   id="polygon1067" />
              </g>
              <g
                 id="g1073">
                <polygon
                   class="st11"
                   points="25.93261,33.05181 27.6066,32.079 29.09534,32.93852 27.42135,33.91134 "
                   id="polygon1071" />
              </g>
              <g
                 id="g1077">
                <polygon
                   class="st11"
                   points="24.05841,31.96974 25.7324,30.99693 27.22114,31.85645 25.54716,32.82927 "
                   id="polygon1075" />
              </g>
              <g
                 id="g1081">
                <polygon
                   class="st11"
                   points="22.18652,30.889 23.8605,29.91619 25.34693,30.77438 23.67294,31.74719 "
                   id="polygon1079" />
              </g>
              <g
                 id="g1085">
                <polygon
                   class="st11"
                   points="30.42944,30.43854 32.10342,29.46573 33.59216,30.32526 31.91818,31.29807 "
                   id="polygon1083" />
              </g>
              <g
                 id="g1089">
                <polygon
                   class="st11"
                   points="28.18217,31.74451 29.85386,30.77303 31.3426,31.63256 29.67091,32.60404 "
                   id="polygon1087" />
              </g>
              <g
                 id="g1093">
                <polygon
                   class="st11"
                   points="6.82414,37.64541 9.33282,36.18752 10.82156,37.04705 8.31288,38.50494 "
                   id="polygon1091" />
              </g>
            </g>
          </g>
        </g>
      </g>
      <g
         id="g1127">
        <g
           id="g1105">
          <path
             class="st13"
             d="M 5.75239,22.23503 C 6.07651,22.0479 6.26788,22.08885 6.40484,22.21292 L 6.22086,22.51121 C 6.1032,22.39262 5.95215,22.40226 5.76763,22.5088 c -0.37547,0.21677 -0.6136,0.68853 -0.61231,1.14209 0.00128,0.45172 0.24132,0.6511 0.61678,0.43432 0.18452,-0.10653 0.33512,-0.27658 0.45173,-0.52675 L 6.4089,23.64552 C 6.27309,23.92892 6.08258,24.19035 5.75846,24.37748 5.22896,24.68319 4.87142,24.42053 4.86971,23.81578 4.868,23.21103 5.22289,22.54074 5.75239,22.23503 Z"
             id="path1103" />
        </g>
        <g
           id="g1109">
          <path
             class="st13"
             d="M 6.94609,23.21718 C 7.0552,23.15419 7.14857,23.20739 7.14892,23.33277 7.14928,23.45998 7.05651,23.61881 6.9474,23.6818 6.83669,23.74572 6.74493,23.69343 6.74457,23.56622 6.74422,23.44084 6.83538,23.2811 6.94609,23.21718 Z"
             id="path1107" />
        </g>
        <g
           id="g1113">
          <ellipse
             class="st13"
             cx="6.94208"
             cy="21.80117"
             rx="0.28499001"
             ry="0.16507"
             transform="matrix(0.50245,-0.8646,0.8646,0.50245,-15.39538,16.84926)"
             id="ellipse1111" />
        </g>
        <g
           id="g1117">
          <polygon
             class="st13"
             points="8.22315,22.98773 7.34341,20.50388 7.56003,20.37881 8.43977,22.86267 "
             id="polygon1115" />
        </g>
        <g
           id="g1121">
          <polygon
             class="st13"
             points="10.32244,20.26136 9.02979,19.52655 9.27449,19.10273 10.81022,19.97974 9.28447,22.6243 9.03817,22.48394 "
             id="polygon1119" />
        </g>
        <g
           id="g1125">
          <polygon
             class="st13"
             points="10.9208,21.5706 10.91893,20.91053 12.52509,19.98322 12.52696,20.64328 "
             id="polygon1123" />
        </g>
      </g>
    </g>
    <g
       id="g1529"
       transform="matrix(0.0648491,0,0,0.0648491,46.554105,24.454783)"
       style="opacity:0.36858974">
      <g
         id="g1343">
        <g
           id="g1311">
          <g
             id="g1309">
            <g
               id="g1307">
              <g
                 id="g1287">
                <g
                   id="g1277">
                  <path
                     class="st0"
                     d="M 47.05795,37.41581 29.77653,47.45867 c -0.36626,0.21365 -0.95634,0.21365 -1.3226,0.0034 L 2.19542,32.29974 c -0.36626,-0.21025 -0.36626,-0.55278 0,-0.76643 L 19.47683,21.49047 c 0.36287,-0.21026 0.95294,-0.21026 1.3192,0 L 47.05455,36.6494 c 0.36626,0.21365 0.36966,0.55615 0.0034,0.76641 z"
                     id="path1275" />
                </g>
                <g
                   id="g1281">
                  <path
                     class="st1"
                     d="m 26.26471,38.08479 c 0.20825,0.12023 0.20703,0.31612 1.2e-4,0.43636 l -4.29602,2.49657 c -0.2069,0.12024 -0.54507,0.12159 -0.75332,0.0014 l -8.46573,-4.8877 c -0.20825,-0.12023 -0.20702,-0.31612 -1.2e-4,-0.43636 l 4.29602,-2.49657 c 0.2069,-0.12024 0.54507,-0.12159 0.75332,-0.0013 z"
                     id="path1279" />
                </g>
                <g
                   id="g1285">
                  <path
                     class="st1"
                     d="m 47.32925,37.03599 -0.0034,1.38364 c 0,0.13566 -0.09155,0.27469 -0.2713,0.37982 L 29.77314,48.84231 c -0.36626,0.21025 -0.95634,0.21025 -1.3226,0 L 2.19202,33.68338 C 2.0089,33.57825 1.91733,33.43922 1.91733,33.29677 l 0.00339,-1.38025 c 0,0.13905 0.09155,0.27808 0.27469,0.38321 l 26.25852,15.16233 c 0.36626,0.21025 0.95634,0.21025 1.3226,-0.0034 L 47.05795,37.4158 c 0.18312,-0.10512 0.2713,-0.24075 0.2713,-0.37981 z"
                     id="path1283" />
                </g>
              </g>
              <g
                 id="g1305">
                <g
                   id="g1291">
                  <path
                     class="st1"
                     d="m 46.72729,16.43427 c 0.36591,0.21126 0.66158,0.72336 0.66039,1.14384 l -0.04681,18.47405 c -0.0012,0.41798 -0.29879,0.59005 -0.66471,0.3788 L 20.79604,21.49047 C 20.43013,21.27921 20.13447,20.76462 20.13565,20.34663 L 20.18246,1.87258 c 0.0012,-0.42047 0.29879,-0.59005 0.66471,-0.3788 z"
                     id="path1289" />
                </g>
                <g
                   id="g1295">
                  <path
                     class="st4"
                     d="m 33.76173,9.74253 c 0.3175,0.18331 0.56921,0.62347 0.56819,0.98415 -0.001,0.36069 -0.25441,0.50922 -0.5719,0.32592 -0.31389,-0.18123 -0.56562,-0.62139 -0.56459,-0.98207 10e-4,-0.36069 0.2544,-0.50923 0.5683,-0.328 z"
                     id="path1293" />
                </g>
                <g
                   id="g1299">
                  <path
                     class="st0"
                     d="m 48.08267,17.17545 -0.04749,18.47334 c 0,0.20686 -0.07462,0.35608 -0.1933,0.42391 l -0.69411,0.40365 c 0.11871,-0.06781 0.1933,-0.21703 0.1933,-0.42391 l 0.04748,-18.47332 c 0,-0.42053 -0.29504,-0.9326 -0.6613,-1.14625 L 20.84702,1.49407 C 20.66388,1.38894 20.49771,1.37878 20.37563,1.44659 l 0.69411,-0.40365 c 0.11869,-0.06783 0.28825,-0.05767 0.47137,0.04746 l 25.88026,14.94219 c 0.36626,0.21026 0.6613,0.72234 0.6613,1.14286 z"
                     id="path1297" />
                </g>
                <g
                   id="g1303">
                  <polygon
                     class="st2"
                     points="46.45359,19.1525 46.40856,35.1999 21.06974,20.57194 21.11478,4.52454 "
                     id="polygon1301" />
                </g>
              </g>
            </g>
          </g>
        </g>
        <g
           id="g1341">
          <g
             id="g1335">
            <g
               id="g1315">
              <polygon
                 class="st7"
                 points="43.25139,25.12937 43.24868,26.08547 31.13796,19.09334 31.14067,18.13724 "
                 id="polygon1313" />
            </g>
            <g
               class="st8"
               id="g1329">
              <g
                 id="g1319">
                <polygon
                   class="st7"
                   points="43.23947,29.33307 43.23676,30.28911 31.12605,23.29699 31.12876,22.34094 "
                   id="polygon1317" />
              </g>
              <g
                 id="g1323">
                <polygon
                   class="st7"
                   points="43.24541,27.23881 43.24274,28.17973 31.13202,21.1876 31.13469,20.24668 "
                   id="polygon1321" />
              </g>
              <g
                 id="g1327">
                <polygon
                   class="st4"
                   points="43.27045,19.14132 43.25909,23.14772 23.32988,11.64159 23.34124,7.63518 "
                   id="polygon1325" />
              </g>
            </g>
            <g
               id="g1333">
              <polygon
                 class="st6"
                 points="29.75394,17.33661 29.73931,22.49636 23.30755,18.78298 23.32218,13.62323 "
                 id="polygon1331" />
            </g>
          </g>
          <g
             id="g1339">
            <polygon
               class="st11"
               points="40.46217,27.48066 39.78404,27.86711 40.76686,29.56943 39.60266,30.22601 38.61983,28.52369 37.94171,28.91013 37.70477,25.60566 "
               id="polygon1337" />
          </g>
        </g>
      </g>
      <g
         id="g1527">
        <g
           id="g1347">
          <polygon
             class="st11"
             points="30.00167,32.25355 28.52095,33.11406 26.83084,32.13828 28.31157,31.27777 "
             id="polygon1345" />
        </g>
        <g
           id="g1351">
          <polygon
             class="st11"
             points="28.13383,33.33902 26.6531,34.19953 24.963,33.22375 26.44373,32.36324 "
             id="polygon1349" />
        </g>
        <g
           class="st8"
           id="g1441">
          <g
             id="g1355">
            <polygon
               class="st11"
               points="22.38879,23.53051 20.90323,24.39382 19.21312,23.41804 20.69868,22.55472 "
               id="polygon1353" />
          </g>
          <g
             id="g1359">
            <polygon
               class="st11"
               points="24.65851,24.84093 23.17294,25.70424 21.48283,24.72846 22.9684,23.86514 "
               id="polygon1357" />
          </g>
          <g
             id="g1363">
            <polygon
               class="st11"
               points="21.36356,25.10246 19.878,25.96578 17.34527,24.50351 18.83084,23.64019 "
               id="polygon1361" />
          </g>
          <g
             id="g1367">
            <polygon
               class="st11"
               points="26.92822,26.15135 25.44266,27.01467 23.75255,26.03888 25.23811,25.17556 "
               id="polygon1365" />
          </g>
          <g
             id="g1371">
            <polygon
               class="st11"
               points="23.63328,26.41289 22.14771,27.2762 20.45761,26.30042 21.94318,25.4371 "
               id="polygon1369" />
          </g>
          <g
             id="g1375">
            <polygon
               class="st11"
               points="16.78526,26.78693 15.30453,27.64743 13.61442,26.67164 15.09515,25.81114 "
               id="polygon1373" />
          </g>
          <g
             id="g1379">
            <polygon
               class="st11"
               points="20.92282,27.01187 19.44209,27.87238 15.48227,25.58617 16.96299,24.72567 "
               id="polygon1377" />
          </g>
          <g
             id="g1383">
            <polygon
               class="st11"
               points="29.19793,27.46177 27.71236,28.32508 26.02226,27.3493 27.50783,26.48598 "
               id="polygon1381" />
          </g>
          <g
             id="g1387">
            <polygon
               class="st11"
               points="25.90299,27.72331 24.41743,28.58662 22.72733,27.61084 24.21289,26.74752 "
               id="polygon1385" />
          </g>
          <g
             id="g1391">
            <polygon
               class="st11"
               points="19.05498,28.09735 17.57425,28.95785 15.88414,27.98207 17.36486,27.12156 "
               id="polygon1389" />
          </g>
          <g
             id="g1395">
            <polygon
               class="st11"
               points="23.19254,28.32229 21.71181,29.1828 20.0217,28.20701 21.50242,27.34651 "
               id="polygon1393" />
          </g>
          <g
             id="g1399">
            <polygon
               class="st11"
               points="31.46765,28.77219 29.98208,29.6355 28.29198,28.65972 29.77754,27.79641 "
               id="polygon1397" />
          </g>
          <g
             id="g1403">
            <polygon
               class="st11"
               points="28.17271,29.03373 26.68714,29.89704 24.99704,28.92126 26.48261,28.05795 "
               id="polygon1401" />
          </g>
          <g
             id="g1407">
            <polygon
               class="st11"
               points="17.18713,29.18282 15.7064,30.04332 11.74658,27.75712 13.2273,26.89661 "
               id="polygon1405" />
          </g>
          <g
             id="g1411">
            <polygon
               class="st11"
               points="21.32469,29.40777 19.84396,30.26827 18.15385,29.29249 19.63458,28.43198 "
               id="polygon1409" />
          </g>
          <g
             id="g1415">
            <polygon
               class="st11"
               points="25.46224,29.63271 23.98152,30.49321 22.29141,29.51743 23.77214,28.65693 "
               id="polygon1413" />
          </g>
          <g
             id="g1419">
            <polygon
               class="st11"
               points="33.73736,30.08261 32.2518,30.94592 30.56169,29.97014 32.04726,29.10682 "
               id="polygon1417" />
          </g>
          <g
             id="g1423">
            <polygon
               class="st11"
               points="30.44242,30.34415 28.95686,31.20746 27.27163,30.2345 28.75719,29.37118 "
               id="polygon1421" />
          </g>
          <g
             id="g1427">
            <polygon
               class="st11"
               points="23.5944,30.71818 22.11367,31.57869 20.42357,30.60291 21.90429,29.7424 "
               id="polygon1425" />
          </g>
          <g
             id="g1431">
            <polygon
               class="st11"
               points="27.73196,30.94313 26.25123,31.80363 24.56113,30.82785 26.04185,29.96735 "
               id="polygon1429" />
          </g>
          <g
             id="g1435">
            <polygon
               class="st11"
               points="25.86411,32.0286 24.38339,32.88911 22.69328,31.91333 24.17401,31.05282 "
               id="polygon1433" />
          </g>
          <g
             id="g1439">
            <polygon
               class="st11"
               points="26.36341,34.48075 24.88268,35.34125 16.28601,30.37796 17.76674,29.51745 "
               id="polygon1437" />
          </g>
        </g>
        <g
           id="g1445">
          <polygon
             class="st11"
             points="33.07513,38.35576 31.5944,39.21626 29.9043,38.24048 31.38503,37.37998 "
             id="polygon1443" />
        </g>
        <g
           id="g1449">
          <polygon
             class="st11"
             points="30.80541,37.04534 29.32469,37.90584 27.63458,36.93006 29.11531,36.06956 "
             id="polygon1447" />
        </g>
        <g
           id="g1453">
          <polygon
             class="st11"
             points="28.5357,35.73492 27.05497,36.59542 25.36487,35.61964 26.8456,34.75914 "
             id="polygon1451" />
        </g>
        <g
           id="g1457">
          <polygon
             class="st11"
             points="30.40354,34.64944 28.92282,35.50995 27.23272,34.53417 28.71344,33.67366 "
             id="polygon1455" />
        </g>
        <g
           id="g1461">
          <polygon
             class="st11"
             points="32.27139,33.56397 30.79066,34.42448 29.10056,33.4487 30.58129,32.58819 "
             id="polygon1459" />
        </g>
        <g
           id="g1465">
          <polygon
             class="st11"
             points="34.98673,32.9678 33.50116,33.83112 31.81106,32.85534 33.29663,31.99202 "
             id="polygon1463" />
        </g>
        <g
           id="g1469">
          <polygon
             class="st11"
             points="36.00708,31.39303 34.52151,32.25634 32.83141,31.28056 34.31697,30.41725 "
             id="polygon1467" />
        </g>
        <g
           id="g1473">
          <polygon
             class="st11"
             points="42.81622,35.32429 41.33066,36.18761 39.64543,35.21464 41.13099,34.35132 "
             id="polygon1471" />
        </g>
        <g
           id="g1477">
          <polygon
             class="st11"
             points="43.22297,37.723 41.7374,38.58631 38.6202,36.7866 40.10577,35.92328 "
             id="polygon1475" />
        </g>
        <g
           id="g1481">
          <polygon
             class="st11"
             points="34.94297,37.27029 33.46225,38.13079 31.77214,37.15501 33.25287,36.29451 "
             id="polygon1479" />
        </g>
        <g
           id="g1485">
          <polygon
             class="st11"
             points="41.35512,38.80847 39.87439,39.66897 35.91458,37.38277 37.3953,36.52227 "
             id="polygon1483" />
        </g>
        <g
           id="g1489">
          <polygon
             class="st11"
             points="36.81082,36.18481 35.33009,37.04532 33.63999,36.06954 35.12072,35.20903 "
             id="polygon1487" />
        </g>
        <g
           id="g1493">
          <polygon
             class="st11"
             points="39.52616,35.58864 38.04059,36.45196 36.35049,35.47618 37.83606,34.61286 "
             id="polygon1491" />
        </g>
        <g
           id="g1497">
          <polygon
             class="st11"
             points="40.54651,34.01387 39.06094,34.87719 37.37084,33.90141 38.8564,33.03809 "
             id="polygon1495" />
        </g>
        <g
           id="g1501">
          <polygon
             class="st11"
             points="34.5411,34.87439 33.06038,35.7349 31.37028,34.75912 32.851,33.89861 "
             id="polygon1499" />
        </g>
        <g
           id="g1505">
          <polygon
             class="st11"
             points="37.25644,34.27822 35.77088,35.14154 34.08078,34.16576 35.56634,33.30244 "
             id="polygon1503" />
        </g>
        <g
           id="g1509">
          <polygon
             class="st11"
             points="38.27679,32.70345 36.79123,33.56676 35.10112,32.59098 36.58669,31.72767 "
             id="polygon1507" />
        </g>
        <g
           id="g1513">
          <polygon
             class="st11"
             points="45.09081,36.63752 43.60524,37.50084 41.91514,36.52506 43.40071,35.66174 "
             id="polygon1511" />
        </g>
        <g
           id="g1517">
          <polygon
             class="st11"
             points="32.71701,31.65738 31.23145,32.5207 29.54134,31.54492 31.02691,30.6816 "
             id="polygon1515" />
        </g>
        <g
           id="g1521">
          <polygon
             class="st11"
             points="35.34484,39.66618 33.86412,40.52668 32.17889,39.55371 33.65961,38.69321 "
             id="polygon1519" />
        </g>
        <g
           id="g1525">
          <polygon
             class="st11"
             points="39.48727,39.89394 36.13871,41.83992 34.4486,40.86414 37.79717,38.91816 "
             id="polygon1523" />
        </g>
      </g>
    </g>
  </g>
  <style
     type="text/css"
     id="style861">
	.st0{fill:#B7C5FD;}
	.st1{fill:#9AADFD;}
	.st2{fill:#FFFFFF;}
	.st3{fill:#3955D1;}
	.st4{fill:#4466FB;}
	.st5{fill:#AABAFD;}
	.st6{fill:#798FFE;}
	.st7{fill:#6BB5FB;}
	.st8{enable-background:new    ;}
	.st9{fill:#1B2A4F;}
	.st10{fill:url(#);}
	.st11{fill:#384E85;}
	.st12{fill:#2E4277;}
	.st13{fill:#D9DDF6;}
	.st14{fill:#535D88;}
	.st15{fill:#2B3C67;}
	.st16{fill:#8FCCFF;}
	.st17{fill:#8CA1FD;}
	.st18{opacity:0.3;}
	.st19{opacity:0.3;fill:#4466FB;}
	.st20{opacity:0.2;}
</style>
  <style
     type="text/css"
     id="style1273">
	.st0{fill:#B7C5FD;}
	.st1{fill:#9AADFD;}
	.st2{fill:#FFFFFF;}
	.st3{fill:#3955D1;}
	.st4{fill:#4466FB;}
	.st5{fill:#AABAFD;}
	.st6{fill:#798FFE;}
	.st7{fill:#6BB5FB;}
	.st8{enable-background:new    ;}
	.st9{fill:#1B2A4F;}
	.st10{fill:url(#);}
	.st11{fill:#384E85;}
	.st12{fill:#2E4277;}
	.st13{fill:#D9DDF6;}
	.st14{fill:#535D88;}
	.st15{fill:#2B3C67;}
	.st16{fill:#8FCCFF;}
	.st17{fill:#8CA1FD;}
	.st18{opacity:0.3;}
	.st19{opacity:0.3;fill:#4466FB;}
	.st20{opacity:0.2;}
</style>
</svg>
